<svg xmlns="http://www.w3.org/2000/svg" width="44.656" height="29.942"><g data-name="Grupo 1532"><path data-name="Trazado 2450" d="M43.463 17.064c1.208 16.111-15.241 12.517-20.959 12.455h-.4c-5.719.063-21.352 3.843-20.959-12.455l6.13 2.7h30.038z" fill="#324858"/><path data-name="Trazado 2451" d="M43.464 7.568c.7-10.864-15.241-6.858-20.959-6.8a.71.71 0 01-.4 0C16.387.705.441-3.3 1.146 7.568l1.846 2.628h38.666z" fill="#324858"/><path data-name="Trazado 2453" d="M2.311 7.621S.472 7.03.5 9.81c.027 2.727 1.811 2.163 1.811 2.163" fill="#fff" stroke="#324858" stroke-linecap="round" stroke-linejoin="round"/><path data-name="Trazado 2454" d="M2.53 18.667s-1.381 0-1.381-1.96c0-1.608.522-2.284 1.64-2.644a1.848 1.848 0 012.052.765" fill="#fff" stroke="#324858" stroke-linecap="round" stroke-linejoin="round"/><path data-name="Trazado 2456" d="M4.013 19.999s-1.579.272-1.478-2.069 1.279-2.921 2.086-3.06a1.544 1.544 0 011.767.864" fill="#fff" stroke="#324858" stroke-linecap="round" stroke-linejoin="round"/><path data-name="Trazado 2457" d="M5.752 21.705s-2.021.274-1.829-3.662a2.106 2.106 0 01.819-1.57l.242-.184a2.07 2.07 0 012.948.427c.048.069.072.111.072.111" fill="#fff" stroke="#324858" stroke-linecap="round" stroke-linejoin="round"/><path data-name="Trazado 2458" d="M9.796 17.896a2.18 2.18 0 00-3.014-.787c-2.126.936-1.147 6.674.279 6.384a2.75 2.75 0 001.98-1.373" fill="#fff" stroke="#324858" stroke-linecap="round" stroke-linejoin="round"/><path data-name="Trazado 2459" d="M13.222 19.068s-1.75-2.629-3.573-1.055c-1.612 1.391-.363 8.519 1.821 7.311a3.775 3.775 0 002.006-2.366" fill="#fff" stroke="#324858" stroke-linecap="round" stroke-linejoin="round"/><path data-name="Trazado 2460" d="M17.713 19.626a.89.89 0 00-.609-1 10.365 10.365 0 00-3.335-.019c-.438.064-.64.5-.64.978 0 3.123.608 4.392 1.192 5.242a1.661 1.661 0 002.623.153 5.285 5.285 0 00.956-2.679" fill="#fff" stroke="#324858" stroke-linecap="round" stroke-linejoin="round"/><path data-name="Trazado 2461" d="M18.354 18.611c-.438.064-.64.5-.64.978 0 3.123.61 4.758 1.195 5.608a1.285 1.285 0 002.119 0c.573-.847 1.183-2.47 1.271-5.569a.889.889 0 00-.609-1 10.365 10.365 0 00-3.336-.017z" fill="#fff" stroke="#324858" stroke-linecap="round" stroke-linejoin="round"/><path data-name="Trazado 2462" d="M4.165 7.546s-1.7-.873-1.986.4-.337 4.4.8 4.852a1.693 1.693 0 001.19-.046" fill="#fff" stroke="#324858" stroke-linecap="round" stroke-linejoin="round"/><path data-name="Trazado 2463" d="M6.458 7.355s-1.515-1.049-2.194 0-.652 5.523.373 6.068c.606.321 1.665-.418 1.665-.418" fill="#fff" stroke="#324858" stroke-linecap="round" stroke-linejoin="round"/><path data-name="Trazado 2464" d="M10.007 8.53a3.076 3.076 0 00-1.759-1.821A1.562 1.562 0 006.213 7.93a9.593 9.593 0 00.593 6.287c.911 1.565 2.868-.3 2.868-.3" fill="#fff" stroke="#324858" stroke-linecap="round" stroke-linejoin="round"/><path data-name="Trazado 2465" d="M14.992 9.484c-.791-2.662-2.809-3.909-4.072-2.756-1.235 1.129-1.466 4.893-1.289 6.611a2.267 2.267 0 00.935 1.505c1.211 1.01 3.83.045 3.83.045" fill="#fff" stroke="#324858" stroke-linecap="round" stroke-linejoin="round"/><path data-name="Trazado 2466" d="M18.332 16.595a8.075 8.075 0 002.916-.518 1.83 1.83 0 001.08-1.686c-.027-9.052-3.846-8.733-3.846-8.733s-3.81-.424-4.084 8.624a1.828 1.828 0 001.033 1.714 8.069 8.069 0 002.9.6" fill="#fff" stroke="#324858" stroke-linecap="round" stroke-linejoin="round"/><path data-name="Trazado 2467" d="M42.344 7.621s1.839-.591 1.811 2.189c-.027 2.727-1.811 2.163-1.811 2.163" fill="#fff" stroke="#324858" stroke-linecap="round" stroke-linejoin="round"/><path data-name="Trazado 2468" d="M42.126 18.667s1.381 0 1.381-1.96c0-1.608-.522-2.284-1.64-2.644a1.848 1.848 0 00-2.052.765" fill="#fff" stroke="#324858" stroke-linecap="round" stroke-linejoin="round"/><path data-name="Trazado 2470" d="M40.643 19.999s1.579.272 1.478-2.069-1.279-2.921-2.085-3.06a1.544 1.544 0 00-1.768.864" fill="#fff" stroke="#324858" stroke-linecap="round" stroke-linejoin="round"/><path data-name="Trazado 2471" d="M38.903 21.705s2.021.274 1.829-3.662a2.106 2.106 0 00-.819-1.57l-.242-.184a2.07 2.07 0 00-2.948.427c-.048.069-.072.111-.072.111" fill="#fff" stroke="#324858" stroke-linecap="round" stroke-linejoin="round"/><path data-name="Trazado 2472" d="M34.859 17.896a2.18 2.18 0 013.014-.787c2.126.936 1.147 6.674-.279 6.384a2.75 2.75 0 01-1.98-1.373" fill="#fff" stroke="#324858" stroke-linecap="round" stroke-linejoin="round"/><path data-name="Trazado 2473" d="M31.432 19.068s1.75-2.629 3.573-1.055c1.612 1.391.363 8.519-1.821 7.311a3.775 3.775 0 01-2.006-2.366" fill="#fff" stroke="#324858" stroke-linecap="round" stroke-linejoin="round"/><path data-name="Trazado 2474" d="M26.943 19.626a.89.89 0 01.609-1 10.365 10.365 0 013.335-.019c.438.064.64.5.64.978 0 3.123-.608 4.392-1.192 5.242a1.661 1.661 0 01-2.623.153 5.284 5.284 0 01-.956-2.679" fill="#fff" stroke="#324858" stroke-linecap="round" stroke-linejoin="round"/><path data-name="Trazado 2475" d="M26.303 18.611c.438.064.64.5.64.978 0 3.123-.61 4.758-1.195 5.608a1.285 1.285 0 01-2.119 0c-.572-.847-1.183-2.47-1.27-5.569a.89.89 0 01.609-1 10.365 10.365 0 013.335-.017z" fill="#fff" stroke="#324858" stroke-linecap="round" stroke-linejoin="round"/><path data-name="Trazado 2476" d="M40.491 7.546s1.7-.873 1.986.4.337 4.4-.8 4.852a1.693 1.693 0 01-1.19-.046" fill="#fff" stroke="#324858" stroke-linecap="round" stroke-linejoin="round"/><path data-name="Trazado 2477" d="M38.198 7.355s1.515-1.049 2.194 0 .652 5.523-.373 6.068c-.606.321-1.665-.418-1.665-.418" fill="#fff" stroke="#324858" stroke-linecap="round" stroke-linejoin="round"/><path data-name="Trazado 2478" d="M34.648 8.53a3.076 3.076 0 011.759-1.821 1.562 1.562 0 012.035 1.221 9.594 9.594 0 01-.593 6.287c-.911 1.565-2.868-.3-2.868-.3" fill="#fff" stroke="#324858" stroke-linecap="round" stroke-linejoin="round"/><path data-name="Trazado 2479" d="M29.664 9.484c.791-2.662 2.809-3.909 4.072-2.756 1.235 1.129 1.466 4.893 1.289 6.611a2.267 2.267 0 01-.935 1.505c-1.211 1.01-3.83.045-3.83.045" fill="#fff" stroke="#324858" stroke-linecap="round" stroke-linejoin="round"/><path data-name="Trazado 2480" d="M26.324 16.595a8.079 8.079 0 01-2.917-.518 1.83 1.83 0 01-1.08-1.686c.027-9.052 3.846-8.733 3.846-8.733s3.81-.424 4.084 8.624a1.829 1.829 0 01-1.033 1.714 8.066 8.066 0 01-2.9.6" fill="#fff" stroke="#324858" stroke-linecap="round" stroke-linejoin="round"/></g></svg>