<svg xmlns="http://www.w3.org/2000/svg" width="44.624" height="34.541"><g data-name="Grupo 1536"><path data-name="Trazado 2536" d="M38.06 27.162c3.695-4.416 6.574-10.927 6.563-20.5A6.684 6.684 0 0038.331.005a6.558 6.558 0 00-6.949 6.468 21.473 21.473 0 01-2.627 11.052 7.479 7.479 0 01-12.892-.009 21.413 21.413 0 01-2.621-10.915 6.659 6.659 0 00-6.413-6.6A6.555 6.555 0 000 6.474c0 10.208 3.137 16.945 7.06 21.38 8.188 9.262 23.074 8.783 31-.692z" fill="#037cdb" opacity=".3"/><path data-name="Trazado 2537" d="M20.913 26.182s-.741-.742-1.579.258-2.095 3.223-1.547 4.254 2.617 1.136 3.086.805.782-.838.782-2.482a4.343 4.343 0 00-.742-2.835z" fill="#fff" stroke="#324858" stroke-linecap="round" stroke-linejoin="round"/><path data-name="Trazado 2538" d="M16.112 25.086s-1.579-.258-3 2.224 2.031 3.932 3.277 2.482c.538-.625 1.431-4.352-.277-4.706z" fill="#fff" stroke="#324858" stroke-linecap="round" stroke-linejoin="round"/><path data-name="Trazado 2539" d="M13.218 24.171a1.2 1.2 0 00-.979-.98 4.786 4.786 0 00-3.952.516c-1.87 1.45 2.12 5.44 3.505 4.344a4.377 4.377 0 001.426-3.88z" fill="#fff" stroke="#324858" stroke-linecap="round" stroke-linejoin="round"/><path data-name="Trazado 2540" d="M23.709 26.182s.741-.742 1.579.258 2.095 3.223 1.547 4.254-2.617 1.136-3.086.805-.781-.838-.781-2.482a4.345 4.345 0 01.741-2.835z" fill="#fff" stroke="#324858" stroke-linecap="round" stroke-linejoin="round"/><path data-name="Trazado 2541" d="M28.512 25.086s1.579-.258 3 2.224-2.03 3.932-3.277 2.482c-.539-.625-1.432-4.352.277-4.706z" fill="#fff" stroke="#324858" stroke-linecap="round" stroke-linejoin="round"/><path data-name="Trazado 2542" d="M31.405 24.171a1.2 1.2 0 01.979-.98 4.786 4.786 0 013.952.516c1.87 1.45-2.12 5.44-3.505 4.344a4.377 4.377 0 01-1.426-3.88z" fill="#fff" stroke="#324858" stroke-linecap="round" stroke-linejoin="round"/><path data-name="Trazado 2543" d="M36.297 13.711a3.964 3.964 0 012.466.725c1.131.841.145 1.827.435 2.9s.754 3.916-1.015 4.989-3.364.871-4.09 0a3.933 3.933 0 01-.435-3.771c.522-1.363-.319-2.495.435-3.8a2.187 2.187 0 012.204-1.043z" fill="#fff" stroke="#324858" stroke-linecap="round" stroke-linejoin="round"/><path data-name="Trazado 2544" d="M37.523 4.008a4.756 4.756 0 012.519.794 3.7 3.7 0 011.4 2.575c.274 1.013-.411 4.465-2.081 5.478a3.477 3.477 0 01-4.24-.242 3.954 3.954 0 01-.576-3.675c.493-1.288-.142-2.465.57-3.7a2.994 2.994 0 012.408-1.23z" fill="#fff" stroke="#324858" stroke-linecap="round" stroke-linejoin="round"/><path data-name="Trazado 2545" d="M36.422 15.828a10.983 10.983 0 010 4.845" fill="none" stroke="#324858" stroke-linecap="round" stroke-linejoin="round" stroke-width=".5"/><path data-name="Trazado 2546" d="M38.412 16.998a6.261 6.261 0 01-1.742.264" fill="none" stroke="#324858" stroke-linecap="round" stroke-linejoin="round" stroke-width=".5"/><path data-name="Trazado 2547" d="M34.951 17.909a6.293 6.293 0 001.76-.066" fill="none" stroke="#324858" stroke-linecap="round" stroke-linejoin="round" stroke-width=".5"/><path data-name="Trazado 2548" d="M37.769 6.501a18.54 18.54 0 01-.328 5.177" fill="none" stroke="#324858" stroke-linecap="round" stroke-linejoin="round" stroke-width=".5"/><path data-name="Trazado 2549" d="M35.637 8.761a11.071 11.071 0 013.988.328" fill="none" stroke="#324858" stroke-linecap="round" stroke-linejoin="round" stroke-width=".5"/><path data-name="Trazado 2550" d="M8.332 13.711a3.962 3.962 0 00-2.465.725c-1.131.841-.145 1.827-.435 2.9s-.755 3.916 1.015 4.989 3.364.871 4.09 0a3.937 3.937 0 00.435-3.771c-.523-1.363.319-2.495-.435-3.8a2.189 2.189 0 00-2.205-1.043z" fill="#fff" stroke="#324858" stroke-linecap="round" stroke-linejoin="round"/><path data-name="Trazado 2551" d="M7.103 4.008a4.759 4.759 0 00-2.52.794 3.711 3.711 0 00-1.4 2.575c-.274 1.013.411 4.465 2.082 5.478a3.477 3.477 0 004.24-.242 3.954 3.954 0 00.575-3.675c-.493-1.288.143-2.465-.57-3.7a2.991 2.991 0 00-2.407-1.23z" fill="#fff" stroke="#324858" stroke-linecap="round" stroke-linejoin="round"/><path data-name="Trazado 2552" d="M8.203 15.828a10.984 10.984 0 000 4.845" fill="none" stroke="#324858" stroke-linecap="round" stroke-linejoin="round" stroke-width=".5"/><path data-name="Trazado 2553" d="M6.213 16.998a6.26 6.26 0 001.742.264" fill="none" stroke="#324858" stroke-linecap="round" stroke-linejoin="round" stroke-width=".5"/><path data-name="Trazado 2554" d="M9.674 17.909a6.293 6.293 0 01-1.76-.066" fill="none" stroke="#324858" stroke-linecap="round" stroke-linejoin="round" stroke-width=".5"/><path data-name="Trazado 2555" d="M6.856 6.501a18.519 18.519 0 00.329 5.177" fill="none" stroke="#324858" stroke-linecap="round" stroke-linejoin="round" stroke-width=".5"/><path data-name="Trazado 2556" d="M9.101 8.761a12.334 12.334 0 00-4.213.328" fill="none" stroke="#324858" stroke-linecap="round" stroke-linejoin="round" stroke-width=".5"/></g></svg>