<svg xmlns="http://www.w3.org/2000/svg" width="48.19" height="18.343"><g data-name="Grupo 1528"><path data-name="Trazado 2450" d="M47.643 3.997c1.346 17.949-16.979 13.945-23.35 13.876h-.442C17.48 17.943.064 22.155.501 3.997L7.33 7.005h33.465z" fill="#324858"/><path data-name="Trazado 2454" d="M2.042 5.783S.503 5.783.503 3.6c0-1.792.581-2.545 1.827-2.946a2.058 2.058 0 012.286.852" fill="#fff" stroke="#324858" stroke-linecap="round" stroke-linejoin="round"/><path data-name="Trazado 2456" d="M3.691 7.269s-1.759.3-1.646-2.305S3.47 1.71 4.369 1.555a1.72 1.72 0 011.969.963" fill="#fff" stroke="#324858" stroke-linecap="round" stroke-linejoin="round"/><path data-name="Trazado 2457" d="M5.629 9.167s-2.251.306-2.038-4.08a2.347 2.347 0 01.913-1.749l.269-.2a2.306 2.306 0 013.284.476c.054.077.08.124.08.124" fill="#fff" stroke="#324858" stroke-linecap="round" stroke-linejoin="round"/><path data-name="Trazado 2458" d="M10.135 4.923a2.429 2.429 0 00-3.358-.877c-2.368 1.043-1.278 7.435.311 7.113A3.064 3.064 0 009.294 9.63" fill="#fff" stroke="#324858" stroke-linecap="round" stroke-linejoin="round"/><path data-name="Trazado 2459" d="M13.953 6.228s-1.95-2.929-3.981-1.175c-1.8 1.549-.4 9.491 2.028 8.145a4.205 4.205 0 002.235-2.636" fill="#fff" stroke="#324858" stroke-linecap="round" stroke-linejoin="round"/><path data-name="Trazado 2460" d="M18.952 6.851a.991.991 0 00-.679-1.109 11.549 11.549 0 00-3.716-.021c-.487.071-.713.558-.713 1.09 0 3.479.677 4.893 1.328 5.84a1.85 1.85 0 002.922.17 5.887 5.887 0 001.065-2.985" fill="#fff" stroke="#324858" stroke-linecap="round" stroke-linejoin="round"/><path data-name="Trazado 2461" d="M19.668 5.721c-.487.071-.713.558-.712 1.09 0 3.479.68 5.3 1.331 6.248a1.432 1.432 0 002.361 0c.638-.943 1.318-2.752 1.415-6.2a.99.99 0 00-.679-1.109 11.549 11.549 0 00-3.716-.029z" fill="#fff" stroke="#324858" stroke-linecap="round" stroke-linejoin="round"/><path data-name="Trazado 2468" d="M46.151 5.783s1.539 0 1.539-2.183c0-1.792-.581-2.545-1.827-2.946a2.058 2.058 0 00-2.286.852" fill="#fff" stroke="#324858" stroke-linecap="round" stroke-linejoin="round"/><path data-name="Trazado 2470" d="M44.5 7.269s1.759.3 1.646-2.305-1.425-3.254-2.323-3.409a1.721 1.721 0 00-1.97.963" fill="#fff" stroke="#324858" stroke-linecap="round" stroke-linejoin="round"/><path data-name="Trazado 2471" d="M42.562 9.167s2.251.306 2.038-4.08a2.346 2.346 0 00-.913-1.749l-.269-.2a2.306 2.306 0 00-3.284.476c-.054.077-.08.124-.08.124" fill="#fff" stroke="#324858" stroke-linecap="round" stroke-linejoin="round"/><path data-name="Trazado 2472" d="M38.056 4.923a2.429 2.429 0 013.358-.877c2.368 1.043 1.278 7.435-.311 7.113a3.064 3.064 0 01-2.206-1.529" fill="#fff" stroke="#324858" stroke-linecap="round" stroke-linejoin="round"/><path data-name="Trazado 2473" d="M34.238 6.228s1.95-2.929 3.981-1.175c1.8 1.549.4 9.491-2.028 8.145a4.205 4.205 0 01-2.235-2.636" fill="#fff" stroke="#324858" stroke-linecap="round" stroke-linejoin="round"/><path data-name="Trazado 2474" d="M29.237 6.851a.991.991 0 01.679-1.109 11.549 11.549 0 013.716-.021c.487.071.713.558.713 1.09 0 3.479-.677 4.893-1.328 5.84a1.85 1.85 0 01-2.922.17 5.886 5.886 0 01-1.065-2.985" fill="#fff" stroke="#324858" stroke-linecap="round" stroke-linejoin="round"/><path data-name="Trazado 2475" d="M28.524 5.721c.487.071.714.558.713 1.09 0 3.479-.68 5.3-1.331 6.248a1.432 1.432 0 01-2.361 0c-.638-.943-1.318-2.752-1.415-6.2a.991.991 0 01.679-1.109 11.549 11.549 0 013.715-.029z" fill="#fff" stroke="#324858" stroke-linecap="round" stroke-linejoin="round"/></g></svg>