<svg xmlns="http://www.w3.org/2000/svg" width="45.649" height="33.655"><g data-name="Grupo 1534"><path data-name="Trazado 2499" d="M6.713 7.19C2.934 11.49-.012 17.837 0 27.162a6.658 6.658 0 006.437 6.486 6.581 6.581 0 007.11-6.3 20.145 20.145 0 012.681-10.772 7.851 7.851 0 0113.19.009 20.087 20.087 0 012.681 10.636 6.644 6.644 0 006.56 6.431 6.571 6.571 0 006.986-6.307c0-9.946-3.21-16.51-7.221-20.831-8.373-9.022-23.602-8.556-31.711.676z" fill="#037cdb" opacity=".3"/><g data-name="Grupo 1522" fill="#fff" stroke="#324858" stroke-linecap="round" stroke-linejoin="round"><path data-name="Trazado 2500" d="M21.398 9.998c1.3-.328 1.546-3.428 1.1-5.066-.492-1.793-5.432-.346-4.991 1.338.329 1.272 2.388 4.105 3.891 3.728z"/><path data-name="Trazado 2501" d="M16.742 11.396c.921-.527.447-3.217-.243-4.528-.756-1.435-4.209.738-3.516 2.09.524 1.021 2.695 3.046 3.759 2.438z"/><path data-name="Trazado 2502" d="M14.086 14.287c.679-1.045-.7-3.362-2.129-4.36-.8-.558-1.638.532-2.6 1.064-1.03.57-.628 2.55.083 3.059 1.096.786 3.862 1.443 4.646.237z"/><path data-name="Trazado 2503" d="M11.898 19.427c.65-1.72-.838-4.027-2.432-4.726-1.659-.728-2.733.4-3.531 1.157-1.022.968.3 3.719 1.055 4.156 1.167.674 4.398.759 4.908-.587z"/><path data-name="Trazado 2504" d="M8.039 20.49a14.307 14.307 0 00-2.477-.37 3.342 3.342 0 00-2.684 3.146 14.179 14.179 0 00.451 3.22 3.69 3.69 0 003.052 2.3h.067a4.423 4.423 0 004.131-2.368 3.516 3.516 0 00.238-.561l.107-.341a4.107 4.107 0 00.166-1.822 2.045 2.045 0 00-.241-.763c-.378-.599-1.812-2.237-2.81-2.441z"/><path data-name="Trazado 2505" d="M25.04 9.998c-1.3-.328-1.546-3.428-1.1-5.066.492-1.793 5.432-.346 4.992 1.338-.331 1.272-2.389 4.105-3.892 3.728z"/><path data-name="Trazado 2506" d="M29.695 11.396c-.921-.527-.447-3.217.243-4.528.756-1.435 4.21.738 3.517 2.09-.524 1.021-2.693 3.046-3.76 2.438z"/><path data-name="Trazado 2507" d="M32.352 14.287c-.68-1.045.7-3.362 2.129-4.36.8-.558 1.637.532 2.6 1.064 1.03.57.628 2.55-.083 3.059-1.096.786-3.861 1.443-4.646.237z"/><path data-name="Trazado 2508" d="M34.539 19.427c-.651-1.72.838-4.027 2.431-4.726 1.659-.728 2.734.4 3.531 1.157 1.023.968-.3 3.719-1.054 4.156-1.167.674-4.399.759-4.908-.587z"/><path data-name="Trazado 2509" d="M38.399 20.49a14.308 14.308 0 012.476-.37 3.342 3.342 0 012.683 3.146 14.155 14.155 0 01-.45 3.22 3.692 3.692 0 01-3.052 2.3h-.066a4.425 4.425 0 01-4.129-2.368 3.591 3.591 0 01-.237-.561l-.107-.341a4.12 4.12 0 01-.167-1.822 2.046 2.046 0 01.242-.763c.369-.599 1.809-2.237 2.807-2.441z"/></g><path data-name="Trazado 2510" d="M7.232 21.584a2.79 2.79 0 01-2.786 1.963" fill="none" stroke="#324858" stroke-linecap="round" stroke-linejoin="round" stroke-width=".5"/><path data-name="Trazado 2511" d="M6.444 27.194A2.791 2.791 0 019.23 25.23" fill="none" stroke="#324858" stroke-linecap="round" stroke-linejoin="round" stroke-width=".5"/><path data-name="Trazado 2512" d="M4.446 25.927s3.052-2.634 4.785-2.079" fill="none" stroke="#324858" stroke-linecap="round" stroke-linejoin="round" stroke-width=".5"/><path data-name="Trazado 2513" d="M7.457 17.977s1.627-1.4 2.551-1.109" fill="none" stroke="#324858" stroke-linecap="round" stroke-linejoin="round" stroke-width=".5"/><path data-name="Trazado 2514" d="M39.23 21.584a2.791 2.791 0 002.786 1.963" fill="none" stroke="#324858" stroke-linecap="round" stroke-linejoin="round" stroke-width=".5"/><path data-name="Trazado 2515" d="M40.019 27.194a2.792 2.792 0 00-2.786-1.964" fill="none" stroke="#324858" stroke-linecap="round" stroke-linejoin="round" stroke-width=".5"/><path data-name="Trazado 2516" d="M42.017 25.927s-3.052-2.634-4.784-2.079" fill="none" stroke="#324858" stroke-linecap="round" stroke-linejoin="round" stroke-width=".5"/><path data-name="Trazado 2517" d="M39.005 17.977s-1.627-1.4-2.551-1.109" fill="none" stroke="#324858" stroke-linecap="round" stroke-linejoin="round" stroke-width=".5"/></g></svg>