<svg xmlns="http://www.w3.org/2000/svg" width="49.637" height="18.991"><g data-name="Grupo 1527"><path data-name="Trazado 2451" d="M48.366 8.431c.785-12.1-16.979-7.64-23.35-7.57a.792.792 0 01-.442 0C18.204.791.439-3.672 1.224 8.431l2.056 2.928h43.078z" fill="#324858"/><path data-name="Trazado 2453" d="M2.518 8.49S.47 7.831.5 10.928c.03 3.039 2.018 2.409 2.018 2.409" fill="#fff" stroke="#324858" stroke-linecap="round" stroke-linejoin="round"/><path data-name="Trazado 2462" d="M4.583 8.407s-1.891-.973-2.212.444-.375 4.9.887 5.4a1.886 1.886 0 001.325-.051" fill="#fff" stroke="#324858" stroke-linecap="round" stroke-linejoin="round"/><path data-name="Trazado 2463" d="M7.134 8.193s-1.688-1.168-2.444 0-.726 6.153.416 6.76c.675.358 1.855-.465 1.855-.465" fill="#fff" stroke="#324858" stroke-linecap="round" stroke-linejoin="round"/><path data-name="Trazado 2464" d="M11.093 9.501a3.426 3.426 0 00-1.959-2.028 1.74 1.74 0 00-2.267 1.36c-.459 1.791-.491 5.025.661 7 1.015 1.744 3.2-.337 3.2-.337" fill="#fff" stroke="#324858" stroke-linecap="round" stroke-linejoin="round"/><path data-name="Trazado 2465" d="M16.65 10.57c-.881-2.966-3.13-4.355-4.536-3.07-1.376 1.257-1.634 5.451-1.436 7.365a2.525 2.525 0 001.042 1.677c1.349 1.125 4.267.05 4.267.05" fill="#fff" stroke="#324858" stroke-linecap="round" stroke-linejoin="round"/><path data-name="Trazado 2466" d="M20.366 18.488a9 9 0 003.248-.577 2.038 2.038 0 001.2-1.878c-.03-10.084-4.285-9.729-4.285-9.729s-4.244-.472-4.55 9.608a2.037 2.037 0 001.151 1.91 8.989 8.989 0 003.232.667" fill="#fff" stroke="#324858" stroke-linecap="round" stroke-linejoin="round"/><path data-name="Trazado 2467" d="M47.119 8.49s2.048-.659 2.018 2.438c-.03 3.039-2.018 2.409-2.018 2.409" fill="#fff" stroke="#324858" stroke-linecap="round" stroke-linejoin="round"/><path data-name="Trazado 2476" d="M45.053 8.407s1.891-.973 2.212.444.375 4.9-.887 5.4a1.887 1.887 0 01-1.325-.051" fill="#fff" stroke="#324858" stroke-linecap="round" stroke-linejoin="round"/><path data-name="Trazado 2477" d="M42.499 8.193s1.688-1.168 2.444 0 .726 6.153-.416 6.76c-.675.358-1.855-.465-1.855-.465" fill="#fff" stroke="#324858" stroke-linecap="round" stroke-linejoin="round"/><path data-name="Trazado 2478" d="M38.543 9.501a3.426 3.426 0 011.959-2.028 1.74 1.74 0 012.267 1.36c.459 1.791.491 5.025-.661 7-1.015 1.744-3.2-.337-3.2-.337" fill="#fff" stroke="#324858" stroke-linecap="round" stroke-linejoin="round"/><path data-name="Trazado 2479" d="M32.991 10.57c.881-2.966 3.13-4.355 4.536-3.07 1.376 1.257 1.634 5.451 1.436 7.365a2.526 2.526 0 01-1.042 1.677c-1.349 1.125-4.267.05-4.267.05" fill="#fff" stroke="#324858" stroke-linecap="round" stroke-linejoin="round"/><path data-name="Trazado 2480" d="M29.27 18.488a9 9 0 01-3.249-.577 2.038 2.038 0 01-1.2-1.878c.03-10.084 4.285-9.729 4.285-9.729s4.244-.472 4.55 9.608a2.037 2.037 0 01-1.151 1.91 8.985 8.985 0 01-3.231.667" fill="#fff" stroke="#324858" stroke-linecap="round" stroke-linejoin="round"/></g></svg>