<svg data-name="Grupo 1576" xmlns="http://www.w3.org/2000/svg" width="44.122" height="47.474"><rect data-name="Rect치ngulo 1836" width="33.453" height="26.214" rx="2.899" transform="translate(5.335 13.558)" fill="#fff" stroke="#324858" stroke-miterlimit="10"/><rect data-name="Rect치ngulo 1837" width="37.839" height="29.651" rx="3.279" transform="translate(3.141 8.484)" fill="#fff" stroke="#324858" stroke-miterlimit="10"/><ellipse data-name="Elipse 282" cx="22.061" cy="1.243" rx="22.061" ry="1.243" transform="translate(0 44.988)" fill="#b2d7f4"/><path data-name="Trazado 2616" d="M39.747 2.617h-4.361v1.829a2.065 2.065 0 01-2.066 2.066h-1.152a2.066 2.066 0 01-2.066-2.066V2.617H14.019v1.829a2.066 2.066 0 01-2.066 2.066h-1.152a2.066 2.066 0 01-2.066-2.066V2.617h-4.36a3.41 3.41 0 00-3.41 3.409v27.063a3.411 3.411 0 003.41 3.41h35.371a3.41 3.41 0 003.409-3.41V6.027a3.41 3.41 0 00-3.408-3.41z" fill="#fff" stroke="#324858" stroke-miterlimit="10"/><g data-name="Grupo 1575" transform="translate(9.313 12.485)"><circle data-name="Elipse 283" cx="1.934" cy="1.934" r="1.934" fill="#b2d7f4"/><circle data-name="Elipse 284" cx="1.934" cy="1.934" r="1.934" transform="translate(7.209)" fill="#324858"/><circle data-name="Elipse 285" cx="1.934" cy="1.934" r="1.934" transform="translate(14.418)" fill="#324858"/><circle data-name="Elipse 286" cx="1.934" cy="1.934" r="1.934" transform="translate(21.627)" fill="#324858"/><circle data-name="Elipse 287" cx="1.934" cy="1.934" r="1.934" transform="translate(0 7.003)" fill="#324858"/><circle data-name="Elipse 288" cx="1.934" cy="1.934" r="1.934" transform="translate(7.209 7.003)" fill="#324858"/><circle data-name="Elipse 289" cx="1.934" cy="1.934" r="1.934" transform="translate(14.418 7.003)" fill="#324858"/><circle data-name="Elipse 290" cx="1.934" cy="1.934" r="1.934" transform="translate(21.627 7.003)" fill="#324858"/><circle data-name="Elipse 291" cx="1.934" cy="1.934" r="1.934" transform="translate(0 14.007)" fill="#324858"/><circle data-name="Elipse 292" cx="1.934" cy="1.934" r="1.934" transform="translate(7.209 14.007)" fill="#324858"/><circle data-name="Elipse 293" cx="1.934" cy="1.934" r="1.934" transform="translate(14.418 14.007)" fill="#324858"/><circle data-name="Elipse 294" cx="1.934" cy="1.934" r="1.934" transform="translate(21.627 14.007)" fill="#b2d7f4"/></g><rect data-name="Rect치ngulo 1838" width="2.228" height="5.181" rx="1.114" transform="translate(10.324)" fill="#324858"/><rect data-name="Rect치ngulo 1839" width="2.228" height="5.181" rx="1.114" transform="translate(31.657 .026)" fill="#324858"/></svg>