<svg xmlns="http://www.w3.org/2000/svg" width="46.059" height="31.005"><g data-name="Grupo 1580" transform="translate(0 .5)"><ellipse data-name="Elipse 297" cx="23.029" cy="1.949" rx="23.029" ry="1.949" transform="translate(0 26.607)" fill="#037cdb" opacity=".3"/><rect data-name="Rectángulo 1845" width="44.635" height="4.341" rx="1.863" transform="translate(.349 14.196)" fill="#324858"/><path data-name="Trazado 2636" d="M40.887 11.737C40.546 5.208 34.325 0 26.679 0h-8.026C11.008 0 4.788 5.208 4.446 11.737z" fill="#fff" stroke="#324858" stroke-miterlimit="10"/><path data-name="Trazado 2637" d="M4.414 21.273v2.723c0 2.428 2.435 4.4 5.437 4.4h25.632c3 0 5.437-1.969 5.437-4.4v-2.723z" fill="#fff" stroke="#324858" stroke-miterlimit="10"/><circle data-name="Elipse 298" cx="1.424" cy="1.424" r="1.424" transform="translate(26.399 6.775)" fill="#037cdb" opacity=".3"/><circle data-name="Elipse 299" cx="1.424" cy="1.424" r="1.424" transform="translate(31.804 6.775)" fill="#037cdb" opacity=".3"/><circle data-name="Elipse 300" cx="1.424" cy="1.424" r="1.424" transform="translate(29.101 3.279)" fill="#037cdb" opacity=".3"/></g></svg>