<svg xmlns="http://www.w3.org/2000/svg" width="54.332" height="25.313"><g data-name="Grupo 1578"><path data-name="Trazado 2618" d="M52.986 9.245c.861-13.271-18.618-8.378-25.6-8.3a1.12 1.12 0 00-.244.035 1.1 1.1 0 00-.243-.035c-6.985-.077-26.465-4.97-25.6 8.3l2.256 3.21H50.79z" fill="#037cdb" opacity=".3"/><path data-name="Trazado 2620" d="M2.712 9.31S.467 8.588.5 11.984c.033 3.332 2.212 2.642 2.212 2.642" fill="#fff" stroke="#324858" stroke-linecap="round" stroke-linejoin="round"/><path data-name="Trazado 2622" d="M4.977 9.219s-2.074-1.067-2.426.487-.413 5.376.972 5.927a2.07 2.07 0 001.453-.056" fill="#fff" stroke="#324858" stroke-linecap="round" stroke-linejoin="round"/><path data-name="Trazado 2623" d="M7.773 8.987s-1.85-1.281-2.679 0-.8 6.747.456 7.413c.74.393 2.033-.51 2.033-.51" fill="#fff" stroke="#324858" stroke-linecap="round" stroke-linejoin="round"/><path data-name="Trazado 2624" d="M12.116 10.417a3.761 3.761 0 00-2.149-2.224 1.908 1.908 0 00-2.486 1.491c-.5 1.964-.539 5.51.725 7.68 1.113 1.912 3.5-.37 3.5-.37" fill="#fff" stroke="#324858" stroke-linecap="round" stroke-linejoin="round"/><path data-name="Trazado 2625" d="M18.205 11.591c-.966-3.252-3.432-4.775-4.974-3.367-1.509 1.379-1.793 5.977-1.575 8.076a2.771 2.771 0 001.144 1.839c1.48 1.234 4.679.055 4.679.055" fill="#fff" stroke="#324858" stroke-linecap="round" stroke-linejoin="round"/><path data-name="Trazado 2626" d="M22.284 20.273a9.862 9.862 0 003.562-.633 2.234 2.234 0 001.32-2.059c-.033-11.058-4.7-10.668-4.7-10.668s-4.654-.518-4.988 10.536a2.23 2.23 0 001.262 2.094 9.849 9.849 0 003.543.731" fill="#fff" stroke="#324858" stroke-linecap="round" stroke-linejoin="round"/><path data-name="Trazado 2627" d="M51.62 9.31s2.245-.722 2.213 2.674c-.033 3.332-2.213 2.642-2.213 2.642" fill="#fff" stroke="#324858" stroke-linecap="round" stroke-linejoin="round"/><path data-name="Trazado 2629" d="M49.354 9.219s2.075-1.067 2.427.487.412 5.376-.973 5.927a2.07 2.07 0 01-1.453-.056" fill="#fff" stroke="#324858" stroke-linecap="round" stroke-linejoin="round"/><path data-name="Trazado 2630" d="M46.553 8.987s1.85-1.281 2.679 0 .8 6.747-.456 7.413c-.74.393-2.033-.51-2.033-.51" fill="#fff" stroke="#324858" stroke-linecap="round" stroke-linejoin="round"/><path data-name="Trazado 2631" d="M42.216 10.417a3.757 3.757 0 012.149-2.224 1.908 1.908 0 012.486 1.491c.5 1.964.539 5.51-.726 7.68-1.113 1.912-3.5-.37-3.5-.37" fill="#fff" stroke="#324858" stroke-linecap="round" stroke-linejoin="round"/><path data-name="Trazado 2632" d="M36.127 11.591c.965-3.252 3.432-4.775 4.974-3.367 1.509 1.379 1.791 5.977 1.574 8.076a2.767 2.767 0 01-1.144 1.839c-1.48 1.234-4.678.055-4.678.055" fill="#fff" stroke="#324858" stroke-linecap="round" stroke-linejoin="round"/><path data-name="Trazado 2633" d="M32.047 20.273a9.865 9.865 0 01-3.562-.633 2.233 2.233 0 01-1.319-2.059c.032-11.058 4.7-10.668 4.7-10.668s4.654-.518 4.989 10.536a2.234 2.234 0 01-1.262 2.094 9.856 9.856 0 01-3.544.731" fill="#fff" stroke="#324858" stroke-linecap="round" stroke-linejoin="round"/><path data-name="Trazado 2634" d="M51.254 13.848h0c-.6-.949-2.265-.094-2.265-.094v.005a1.709 1.709 0 00-.121-.24c-.83-1.28-2.68 0-2.68 0h0A1.822 1.822 0 0044 12.725a3.758 3.758 0 00-2.149 2.224v.014a4.7 4.7 0 00-1.115-2.207c-1.543-1.408-4.008.115-4.974 3.367l.043.39c-1.378-5.387-4.307-5.068-4.307-5.068s-2.338-.191-3.714 3.622a.851.851 0 01-1.6 0c-1.377-3.813-3.715-3.622-3.715-3.622s-2.929-.319-4.305 5.068l.043-.39c-.966-3.252-3.432-4.775-4.974-3.367a4.694 4.694 0 00-1.115 2.207v-.014a3.761 3.761 0 00-2.149-2.224 1.824 1.824 0 00-2.189.794h0s-1.85-1.28-2.679 0a1.827 1.827 0 00-.122.24v-.005s-1.668-.855-2.265.094h0S.469 13.125.502 16.522c.033 3.333 2.212 2.642 2.212 2.642v-.008a1.623 1.623 0 00.812 1.016 2.07 2.07 0 001.454-.057h0a1.492 1.492 0 00.578.82c.74.394 2.033-.51 2.033-.51v-.041a6.793 6.793 0 00.617 1.52c1.113 1.912 3.5-.369 3.5-.369l.022-.365a2.992 2.992 0 001.066 1.508c1.48 1.234 4.679.055 4.679.055l.042-.381a2.2 2.2 0 001.221 1.729 9.594 9.594 0 007.105.1l.017-.007a2.71 2.71 0 012.241 0l.017.007a9.6 9.6 0 007.106-.1 2.2 2.2 0 001.221-1.729l.042.381s3.2 1.179 4.678-.055a2.991 2.991 0 001.066-1.508l.022.365s2.391 2.281 3.5.369a6.755 6.755 0 00.617-1.518v.04s1.293.9 2.033.51a1.487 1.487 0 00.578-.82h0a2.072 2.072 0 001.454.056 1.622 1.622 0 00.811-1.016v.008s2.18.691 2.213-2.642c.041-3.397-2.205-2.674-2.205-2.674z" fill="#fff" stroke="#324858" stroke-linecap="round" stroke-linejoin="round"/></g></svg>